<?xml version="1.0" encoding="UTF-8" standalone="no"?>
<!DOCTYPE svg PUBLIC "-//W3C//DTD SVG 1.1//EN" "http://www.w3.org/Graphics/SVG/1.1/DTD/svg11.dtd">
<svg width="100%" height="100%" viewBox="0 0 3500 3500" version="1.1" xmlns="http://www.w3.org/2000/svg" xmlns:xlink="http://www.w3.org/1999/xlink" xml:space="preserve" xmlns:serif="http://www.serif.com/" style="fill-rule:evenodd;clip-rule:evenodd;stroke-linejoin:round;stroke-miterlimit:2;">
    <g transform="matrix(0.464329,0,0,0.785965,-4.16198,-14.022152)">
        <path d="M7546.725,1037.106L7546.725,3451.698C7546.725,4014.246 6773.643,4470.964 5821.423,4470.964L1734.265,4470.964C782.045,4470.964 8.963,4014.246 8.963,3451.698L8.963,1037.106C8.963,474.558 782.045,17.841 1734.265,17.841L5821.423,17.841C6773.643,17.841 7546.725,474.558 7546.725,1037.106Z" style="fill:url(#_Radial1);"/>
    </g>
    <g id="Layer1" transform="matrix(1.43018,0,0,1.43018,601.697739,30.562142)">
        <g transform="matrix(1,0,0,0.960285,0,36.717772)">
            <path d="M986.877,924.522C992.44,924.522 997.776,926.823 1001.71,930.92C1005.643,935.016 1007.853,940.572 1007.853,946.366L1007.853,2185.418C1007.853,2191.211 1005.643,2196.767 1001.71,2200.864C997.776,2204.96 992.44,2207.262 986.877,2207.262L618.931,2207.262C613.368,2207.262 608.032,2204.96 604.098,2200.864C600.164,2196.767 597.954,2191.211 597.954,2185.418L597.954,1142.961C597.954,1085.027 620.055,1029.466 659.393,988.501C698.731,947.536 752.085,924.522 807.718,924.522L986.877,924.522Z" style="fill:white;"/>
        </g>
        <g transform="matrix(1.36173,0,0,1.36173,-463.428033,-476.396963)">
            <clipPath id="_clip2">
                <circle cx="929.949" cy="675.227" r="131.912"/>
            </clipPath>
            <g clip-path="url(#_clip2)">
                <circle cx="929.949" cy="772.317" r="135.449" style="fill:rgb(236,33,40);"/>
            </g>
        </g>
        <g transform="matrix(0.713408,0,0,0.713408,-449.71381,-23.346287)">
            <path d="M1481.727,754.093C1473.166,726.879 1468.55,697.923 1468.55,667.898C1468.55,509.343 1597.277,380.616 1755.832,380.616C1914.388,380.616 2043.115,509.343 2043.115,667.898C2043.115,697.923 2038.498,726.879 2029.938,754.093C2038.498,781.307 2043.115,810.263 2043.115,840.288C2043.115,998.843 1914.388,1127.57 1755.832,1127.57C1597.277,1127.57 1468.55,998.843 1468.55,840.288C1468.55,810.263 1473.166,781.307 1481.727,754.093ZM1755.832,437.788C1628.831,437.788 1525.723,540.897 1525.723,667.898C1525.723,794.899 1628.831,898.008 1755.832,898.008C1882.833,898.008 1985.942,794.899 1985.942,667.898C1985.942,540.897 1882.833,437.788 1755.832,437.788Z" style="fill:white;"/>
        </g>
    </g>
    <defs>
        <radialGradient id="_Radial1" cx="0" cy="0" r="1" gradientUnits="userSpaceOnUse" gradientTransform="matrix(116.243918,-5893.042989,10957.894248,195.852963,-601.493996,4791.564101)"><stop offset="0" style="stop-color:rgb(61,82,172);stop-opacity:1"/><stop offset="0.11" style="stop-color:rgb(38,123,205);stop-opacity:1"/><stop offset="0.23" style="stop-color:rgb(15,166,239);stop-opacity:1"/><stop offset="0.54" style="stop-color:rgb(4,186,255);stop-opacity:1"/><stop offset="1" style="stop-color:rgb(117,221,255);stop-opacity:1"/></radialGradient>
    </defs>
</svg>
